<?xml version="1.0" encoding="utf-8"?>
<!-- Generator: Adobe Illustrator 22.0.1, SVG Export Plug-In . SVG Version: 6.00 Build 0)  -->
<svg version="1.1" id="Layer_1" xmlns="http://www.w3.org/2000/svg" xmlns:xlink="http://www.w3.org/1999/xlink" x="0px" y="0px"
	 viewBox="0 0 250 227.273" style="enable-background:new 0 0 250 227.273;"  width="52" height="auto" xml:space="preserve">
<style type="text/css">
	.st0{fill:url(#SVGID_1_);}
	.st1{fill:url(#SVGID_2_);}
	.st2{fill:url(#SVGID_3_);}
</style>
<g>
	<linearGradient id="SVGID_1_" gradientUnits="userSpaceOnUse" x1="50.5879" y1="113.6362" x2="199.4128" y2="113.6362">
		<stop  offset="0" style="stop-color:#FFB100"/>
		<stop  offset="0.2361" style="stop-color:#FB871F"/>
		<stop  offset="0.7619" style="stop-color:#F22D5F"/>
		<stop  offset="1" style="stop-color:#EE0979"/>
	</linearGradient>
	<path class="st0" d="M73.272,50.606h103.456c17.903,0,28.728,19.8,19.068,34.879l-51.728,80.75
		c-8.91,13.909-29.226,13.909-38.136,0l-51.728-80.75C44.544,70.406,55.369,50.606,73.272,50.606z"/>
	<g>
		<linearGradient id="SVGID_2_" gradientUnits="userSpaceOnUse" x1="26.2038" y1="113.6364" x2="223.7962" y2="113.6364">
			<stop  offset="0" style="stop-color:#FFB100"/>
			<stop  offset="0.2361" style="stop-color:#FB871F"/>
			<stop  offset="0.7619" style="stop-color:#F22D5F"/>
			<stop  offset="1" style="stop-color:#EE0979"/>
		</linearGradient>
		<path class="st1" d="M26.204,73.317c0-25.974,21.115-47.104,47.068-47.104h103.456c25.954,0,47.068,21.13,47.068,47.103
			c0,8.941-2.584,17.7-7.472,25.331l-51.728,80.748C155.91,192.961,141.107,201.06,125,201.06s-30.909-8.101-39.599-21.668
			L33.676,98.646C28.788,91.017,26.204,82.26,26.204,73.317z M221.613,73.316c0-24.768-20.136-44.918-44.884-44.918H73.272
			c-24.748,0-44.884,20.15-44.884,44.92c0,8.523,2.465,16.874,7.125,24.151l51.725,80.747c8.288,12.937,22.402,20.661,37.762,20.661
			c15.36,0,29.474-7.722,37.759-20.658l51.728-80.748C219.147,90.189,221.613,81.839,221.613,73.316z"/>
	</g>
	<g>
		<linearGradient id="SVGID_3_" gradientUnits="userSpaceOnUse" x1="0" y1="113.6364" x2="250" y2="113.6364">
			<stop  offset="0" style="stop-color:#FFB100"/>
			<stop  offset="0.2361" style="stop-color:#FB871F"/>
			<stop  offset="0.7619" style="stop-color:#F22D5F"/>
			<stop  offset="1" style="stop-color:#EE0979"/>
		</linearGradient>
		<path class="st2" d="M0,73.317C0,32.89,32.869,0,73.272,0h103.456C217.131,0,250,32.89,250,73.316
			c0,13.968-4.015,27.62-11.615,39.476l-51.725,80.746c-13.526,21.123-36.576,33.735-61.66,33.735
			c-25.083,0-48.134-12.613-61.663-33.74l-51.725-80.744C4.015,100.935,0,87.286,0,73.317z M247.816,73.316
			c0-39.221-31.89-71.131-71.088-71.131H73.272c-39.198,0-71.088,31.91-71.088,71.133c0,13.55,3.895,26.792,11.265,38.294
			l51.725,80.744c13.125,20.496,35.49,32.734,59.826,32.734s46.698-12.235,59.823-32.728l51.725-80.746
			C243.921,100.109,247.816,86.866,247.816,73.316z"/>
	</g>
</g>
<g>
</g>
<g>
</g>
<g>
</g>
<g>
</g>
<g>
</g>
<g>
</g>
<g>
</g>
<g>
</g>
<g>
</g>
<g>
</g>
<g>
</g>
<g>
</g>
<g>
</g>
<g>
</g>
<g>
</g>
</svg>
